<svg xmlns="http://www.w3.org/2000/svg" viewBox="0 0 400 320" fill="none" stroke-linecap="round" stroke-linejoin="round">
  
  <path d="M92 64 h146 a22 22 0 0 1 22 22 v50 a22 22 0 0 1 -22 22 h-86 l-24 24 v-24 h-36 a22 22 0 0 1 -22 -22 v-50 a22 22 0 0 1 22 -22 Z" fill="#FFFFFF" stroke="#3D5A2E" stroke-width="4"></path>
  
  <g fill="#F0C060">
    <path d="M99 104 l5.2 10.6 11.7 1.7 -8.5 8.3 2 11.7 -10.4 -5.5 -10.4 5.5 2 -11.7 -8.5 -8.3 11.7 -1.7 Z"></path>
    <path d="M132 104 l5.2 10.6 11.7 1.7 -8.5 8.3 2 11.7 -10.4 -5.5 -10.4 5.5 2 -11.7 -8.5 -8.3 11.7 -1.7 Z"></path>
    <path d="M165 104 l5.2 10.6 11.7 1.7 -8.5 8.3 2 11.7 -10.4 -5.5 -10.4 5.5 2 -11.7 -8.5 -8.3 11.7 -1.7 Z"></path>
    <path d="M198 104 l5.2 10.6 11.7 1.7 -8.5 8.3 2 11.7 -10.4 -5.5 -10.4 5.5 2 -11.7 -8.5 -8.3 11.7 -1.7 Z"></path>
    <path d="M231 104 l5.2 10.6 11.7 1.7 -8.5 8.3 2 11.7 -10.4 -5.5 -10.4 5.5 2 -11.7 -8.5 -8.3 11.7 -1.7 Z"></path>
  </g>
  <line x1="106" y1="143" x2="224" y2="143" stroke="#E4D6C0" stroke-width="6"></line>
  
  <path d="M250 196 h66 a18 18 0 0 1 18 18 v40 a18 18 0 0 1 -18 18 h-24 l-22 22 v-22 h-16 a18 18 0 0 1 -18 -18 v-40 a18 18 0 0 1 18 -18 Z" fill="#F5F2EC" stroke="#3D5A2E" stroke-width="4"></path>
  <line x1="266" y1="220" x2="320" y2="220" stroke="#C7B79D" stroke-width="6"></line>
  <line x1="266" y1="240" x2="306" y2="240" stroke="#D8CDB8" stroke-width="6"></line>
  
  <path d="M322 88 c-6 -11 -24 -7 -24 6 c0 10 13 18 24 26 c11 -8 24 -16 24 -26 c0 -13 -18 -17 -24 -6 Z" fill="#E88080"></path>
  
  <path d="M96 224 l3.5 9 9 3.5 -9 3.5 -3.5 9 -3.5 -9 -9 -3.5 9 -3.5 Z" fill="#F0C060"></path>
</svg>