<svg xmlns="http://www.w3.org/2000/svg" viewBox="0 0 400 300" fill="none" stroke-linecap="round" stroke-linejoin="round">
  
  <rect x="78" y="58" width="184" height="184" rx="20" fill="#FFFFFF" stroke="#3D5A2E" stroke-width="4"></rect>
  <line x1="78" y1="90" x2="262" y2="90" stroke="#D2DED8" stroke-width="3"></line>
  <circle cx="98" cy="74" r="4" fill="#C0CFC7"></circle>
  <circle cx="112" cy="74" r="4" fill="#C0CFC7"></circle>
  
  <rect x="98" y="108" width="92" height="30" rx="15" fill="#F1EEE6" stroke="#3D5A2E" stroke-width="3.5"></rect>
  <rect x="150" y="150" width="92" height="30" rx="15" fill="#CFE0D3" stroke="#3D5A2E" stroke-width="3.5"></rect>
  <rect x="98" y="192" width="68" height="28" rx="14" fill="#F1EEE6" stroke="#3D5A2E" stroke-width="3.5"></rect>
  
  <rect x="214" y="178" width="116" height="84" rx="14" fill="#FFFFFF" stroke="#3D5A2E" stroke-width="4"></rect>
  <text x="234" y="216" font-family="-apple-system, Segoe UI, Roboto, sans-serif" font-size="34" font-weight="800" fill="#3D5A2E">₩</text>
  <line x1="266" y1="206" x2="312" y2="206" stroke="#B7C9BC" stroke-width="6"></line>
  <line x1="266" y1="226" x2="304" y2="226" stroke="#D2DED8" stroke-width="6"></line>
  <line x1="234" y1="244" x2="290" y2="244" stroke="#D2DED8" stroke-width="6"></line>
  
  <path d="M286 70 c0 16 -2 18 -18 18 c16 0 18 2 18 18 c0 -16 2 -18 18 -18 c-16 0 -18 -2 -18 -18 Z" fill="#F0C060"></path>
  <path d="M318 118 c0 10 -1 11 -11 11 c10 0 11 1 11 11 c0 -10 1 -11 11 -11 c-10 0 -11 -1 -11 -11 Z" fill="#F0C060"></path>
  <path d="M64 150 c0 8 -1 9 -9 9 c8 0 9 1 9 9 c0 -8 1 -9 9 -9 c-8 0 -9 -1 -9 -9 Z" fill="#F0C060"></path>
</svg>